<?xml version="1.0" standalone="no"?>
<!DOCTYPE svg PUBLIC "-//W3C//DTD SVG 20010904//EN"
 "http://www.w3.org/TR/2001/REC-SVG-20010904/DTD/svg10.dtd">
<svg version="1.0" xmlns="http://www.w3.org/2000/svg"
 width="512.000000pt" height="512.000000pt" viewBox="0 0 512.000000 512.000000"
 preserveAspectRatio="xMidYMid meet">

<g transform="translate(0.000000,512.000000) scale(0.100000,-0.100000)"
fill="#000000" stroke="none">
<path d="M2405 5044 c-246 -26 -509 -82 -690 -149 -235 -86 -494 -232 -690
-390 -118 -96 -331 -315 -427 -441 -210 -276 -359 -584 -438 -906 -55 -224
-65 -318 -65 -613 0 -238 3 -285 23 -398 129 -715 511 -1298 1107 -1690 310
-203 665 -334 1035 -383 182 -23 576 -15 749 15 535 96 997 342 1376 732 319
328 544 746 644 1199 32 143 41 254 41 540 1 338 -14 457 -86 697 -134 445
-388 853 -707 1134 -390 345 -835 560 -1312 635 -96 15 -472 27 -560 18z m290
-1339 c454 -44 836 -130 1195 -270 140 -54 392 -182 438 -221 55 -46 82 -106
82 -177 0 -135 -94 -231 -225 -231 -51 -1 -71 5 -130 37 -444 240 -953 375
-1540 408 -461 26 -911 -10 -1265 -103 -179 -47 -240 -39 -322 40 -88 84 -86
245 4 329 86 81 520 169 993 202 173 13 571 5 770 -14z m-290 -845 c417 -30
828 -123 1162 -261 121 -50 361 -172 414 -211 72 -52 99 -151 64 -236 -32 -75
-90 -115 -170 -115 -44 -1 -69 9 -195 76 -318 167 -587 256 -976 321 -396 66
-852 55 -1232 -30 -62 -14 -131 -32 -154 -40 -48 -17 -125 -18 -165 -3 -65 24
-123 105 -123 171 0 104 54 167 174 203 343 104 812 153 1201 125z m263 -839
c360 -56 740 -189 983 -346 98 -63 125 -141 77 -226 -23 -41 -85 -79 -129 -79
-14 0 -108 42 -210 93 -355 180 -670 259 -1094 274 -268 9 -554 -17 -859 -78
-158 -32 -190 -31 -240 4 -31 22 -65 88 -66 126 0 43 38 106 78 128 61 35 426
101 677 123 55 4 224 7 375 5 216 -2 303 -7 408 -24z"/>
</g>
</svg>
